<svg id="visual" viewBox="0 0 900 100" width="900" height="100" xmlns="http://www.w3.org/2000/svg" xmlns:xlink="http://www.w3.org/1999/xlink" version="1.1"><rect x="0" y="0" width="900" height="100" fill="#4bc0c0"></rect><path d="M0 20L10.7 18.5C21.3 17 42.7 14 64.2 16C85.7 18 107.3 25 128.8 26.2C150.3 27.3 171.7 22.7 193 24C214.3 25.3 235.7 32.7 257 32.8C278.3 33 299.7 26 321.2 25.7C342.7 25.3 364.3 31.7 385.8 32C407.3 32.3 428.7 26.7 450 25.7C471.3 24.7 492.7 28.3 514.2 28.2C535.7 28 557.3 24 578.8 23.5C600.3 23 621.7 26 643 28.5C664.3 31 685.7 33 707 34.3C728.3 35.7 749.7 36.3 771.2 32.3C792.7 28.3 814.3 19.7 835.8 18.7C857.3 17.7 878.7 24.3 889.3 27.7L900 31L900 101L889.3 101C878.7 101 857.3 101 835.8 101C814.3 101 792.7 101 771.2 101C749.7 101 728.3 101 707 101C685.7 101 664.3 101 643 101C621.7 101 600.3 101 578.8 101C557.3 101 535.7 101 514.2 101C492.7 101 471.3 101 450 101C428.7 101 407.3 101 385.8 101C364.3 101 342.7 101 321.2 101C299.7 101 278.3 101 257 101C235.7 101 214.3 101 193 101C171.7 101 150.3 101 128.8 101C107.3 101 85.7 101 64.2 101C42.7 101 21.3 101 10.7 101L0 101Z" fill="#4bc0c0"></path><path d="M0 52L10.7 46.8C21.3 41.7 42.7 31.3 64.2 30.8C85.7 30.3 107.3 39.7 128.8 43.7C150.3 47.7 171.7 46.3 193 42C214.3 37.7 235.7 30.3 257 29C278.3 27.7 299.7 32.3 321.2 32.5C342.7 32.7 364.3 28.3 385.8 26.2C407.3 24 428.7 24 450 26.3C471.3 28.7 492.7 33.3 514.2 37.3C535.7 41.3 557.3 44.7 578.8 46C600.3 47.3 621.7 46.7 643 44.7C664.3 42.7 685.7 39.3 707 39.3C728.3 39.3 749.7 42.7 771.2 40.3C792.7 38 814.3 30 835.8 27.7C857.3 25.3 878.7 28.7 889.3 30.3L900 32L900 101L889.3 101C878.7 101 857.3 101 835.8 101C814.3 101 792.7 101 771.2 101C749.7 101 728.3 101 707 101C685.7 101 664.3 101 643 101C621.7 101 600.3 101 578.8 101C557.3 101 535.7 101 514.2 101C492.7 101 471.3 101 450 101C428.7 101 407.3 101 385.8 101C364.3 101 342.7 101 321.2 101C299.7 101 278.3 101 257 101C235.7 101 214.3 101 193 101C171.7 101 150.3 101 128.8 101C107.3 101 85.7 101 64.2 101C42.7 101 21.3 101 10.7 101L0 101Z" fill="#3b9ba9"></path><path d="M0 60L10.7 55.7C21.3 51.3 42.7 42.7 64.2 42.8C85.7 43 107.3 52 128.8 52.5C150.3 53 171.7 45 193 43.8C214.3 42.7 235.7 48.3 257 50C278.3 51.7 299.7 49.3 321.2 50.3C342.7 51.3 364.3 55.7 385.8 55.2C407.3 54.7 428.7 49.3 450 46.8C471.3 44.3 492.7 44.7 514.2 47.7C535.7 50.7 557.3 56.3 578.8 57.5C600.3 58.7 621.7 55.3 643 50.7C664.3 46 685.7 40 707 39.7C728.3 39.3 749.7 44.7 771.2 47.5C792.7 50.3 814.3 50.7 835.8 48.8C857.3 47 878.7 43 889.3 41L900 39L900 101L889.3 101C878.7 101 857.3 101 835.8 101C814.3 101 792.7 101 771.2 101C749.7 101 728.3 101 707 101C685.7 101 664.3 101 643 101C621.7 101 600.3 101 578.8 101C557.3 101 535.7 101 514.2 101C492.7 101 471.3 101 450 101C428.7 101 407.3 101 385.8 101C364.3 101 342.7 101 321.2 101C299.7 101 278.3 101 257 101C235.7 101 214.3 101 193 101C171.7 101 150.3 101 128.8 101C107.3 101 85.7 101 64.2 101C42.7 101 21.3 101 10.7 101L0 101Z" fill="#36768c"></path><path d="M0 71L10.7 70.5C21.3 70 42.7 69 64.2 67.2C85.7 65.3 107.3 62.7 128.8 63.5C150.3 64.3 171.7 68.7 193 70.5C214.3 72.3 235.7 71.7 257 70.2C278.3 68.7 299.7 66.3 321.2 66.5C342.7 66.7 364.3 69.3 385.8 67.3C407.3 65.3 428.7 58.7 450 58.7C471.3 58.7 492.7 65.3 514.2 65.8C535.7 66.3 557.3 60.7 578.8 58.3C600.3 56 621.7 57 643 57C664.3 57 685.7 56 707 57.8C728.3 59.7 749.7 64.3 771.2 64.7C792.7 65 814.3 61 835.8 59.5C857.3 58 878.7 59 889.3 59.5L900 60L900 101L889.3 101C878.7 101 857.3 101 835.8 101C814.3 101 792.7 101 771.2 101C749.7 101 728.3 101 707 101C685.7 101 664.3 101 643 101C621.7 101 600.3 101 578.8 101C557.3 101 535.7 101 514.2 101C492.7 101 471.3 101 450 101C428.7 101 407.3 101 385.8 101C364.3 101 342.7 101 321.2 101C299.7 101 278.3 101 257 101C235.7 101 214.3 101 193 101C171.7 101 150.3 101 128.8 101C107.3 101 85.7 101 64.2 101C42.7 101 21.3 101 10.7 101L0 101Z" fill="#335469"></path><path d="M0 74L10.7 73.5C21.3 73 42.7 72 64.2 73.5C85.7 75 107.3 79 128.8 78.7C150.3 78.3 171.7 73.7 193 71.7C214.3 69.7 235.7 70.3 257 72.2C278.3 74 299.7 77 321.2 77C342.7 77 364.3 74 385.8 73.3C407.3 72.7 428.7 74.3 450 75.5C471.3 76.7 492.7 77.3 514.2 76.5C535.7 75.7 557.3 73.3 578.8 72.8C600.3 72.3 621.7 73.7 643 74.5C664.3 75.3 685.7 75.7 707 76.7C728.3 77.7 749.7 79.3 771.2 80.2C792.7 81 814.3 81 835.8 78C857.3 75 878.7 69 889.3 66L900 63L900 101L889.3 101C878.7 101 857.3 101 835.8 101C814.3 101 792.7 101 771.2 101C749.7 101 728.3 101 707 101C685.7 101 664.3 101 643 101C621.7 101 600.3 101 578.8 101C557.3 101 535.7 101 514.2 101C492.7 101 471.3 101 450 101C428.7 101 407.3 101 385.8 101C364.3 101 342.7 101 321.2 101C299.7 101 278.3 101 257 101C235.7 101 214.3 101 193 101C171.7 101 150.3 101 128.8 101C107.3 101 85.7 101 64.2 101C42.7 101 21.3 101 10.7 101L0 101Z" fill="#293544"></path><path d="M0 89L10.7 87C21.3 85 42.7 81 64.2 80C85.7 79 107.3 81 128.8 80.7C150.3 80.3 171.7 77.7 193 77.8C214.3 78 235.7 81 257 81.8C278.3 82.7 299.7 81.3 321.2 83C342.7 84.7 364.3 89.3 385.8 90.2C407.3 91 428.7 88 450 87.5C471.3 87 492.7 89 514.2 89C535.7 89 557.3 87 578.8 84.3C600.3 81.7 621.7 78.3 643 78.2C664.3 78 685.7 81 707 84C728.3 87 749.7 90 771.2 91.5C792.7 93 814.3 93 835.8 93.2C857.3 93.3 878.7 93.7 889.3 93.8L900 94L900 101L889.3 101C878.7 101 857.3 101 835.8 101C814.3 101 792.7 101 771.2 101C749.7 101 728.3 101 707 101C685.7 101 664.3 101 643 101C621.7 101 600.3 101 578.8 101C557.3 101 535.7 101 514.2 101C492.7 101 471.3 101 450 101C428.7 101 407.3 101 385.8 101C364.3 101 342.7 101 321.2 101C299.7 101 278.3 101 257 101C235.7 101 214.3 101 193 101C171.7 101 150.3 101 128.8 101C107.3 101 85.7 101 64.2 101C42.7 101 21.3 101 10.7 101L0 101Z" fill="#181921"></path></svg>