<svg id="visual" viewBox="0 0 900 600" width="900" height="600" xmlns="http://www.w3.org/2000/svg" xmlns:xlink="http://www.w3.org/1999/xlink" version="1.1"><rect x="0" y="0" width="900" height="600" fill="#181921"></rect><defs><linearGradient id="grad1_0" x1="33.3%" y1="0%" x2="100%" y2="100%"><stop offset="20%" stop-color="#181921" stop-opacity="1"></stop><stop offset="80%" stop-color="#181921" stop-opacity="1"></stop></linearGradient></defs><defs><linearGradient id="grad2_0" x1="0%" y1="0%" x2="66.7%" y2="100%"><stop offset="20%" stop-color="#181921" stop-opacity="1"></stop><stop offset="80%" stop-color="#181921" stop-opacity="1"></stop></linearGradient></defs><g transform="translate(900, 0)"><path d="M0 432.7C-67.7 404.5 -135.5 376.4 -195 337.7C-254.5 299.1 -305.8 250 -332.6 192C-359.3 134 -361.7 67 -364 0L0 0Z" fill="#4bc0c0"></path></g><g transform="translate(0, 600)"><path d="M0 -422C73.7 -398.5 147.4 -374.9 191 -330.8C234.6 -286.7 247.9 -222.1 283.2 -163.5C318.4 -104.9 375.6 -52.5 432.7 0L0 0Z" fill="#4bc0c0"></path></g></svg>