<svg width="1440" height="236" viewBox="0 0 1440 236" fill="none" xmlns="http://www.w3.org/2000/svg">
<path d="M0 9.0617L34.4 27.7978C68.8 46.6455 137.6 84.1178 206.08 85.7906C274.72 87.4635 342.88 53.337 411.52 31.9242C480 10.5115 548.8 2.03565 617.28 20.7718C685.92 39.5079 754.08 85.6791 822.72 109.768C891.2 133.969 960 136.2 1028.48 112.557C1097.12 89.0248 1165.28 39.5079 1233.92 17.203C1302.4 -5.10194 1371.2 -0.194852 1405.6 2.14716L1440 4.60072V235.457H1405.6C1371.2 235.457 1302.4 235.457 1233.92 235.457C1165.28 235.457 1097.12 235.457 1028.48 235.457C960 235.457 891.2 235.457 822.72 235.457C754.08 235.457 685.92 235.457 617.28 235.457C548.8 235.457 480 235.457 411.52 235.457C342.88 235.457 274.72 235.457 206.08 235.457C137.6 235.457 68.8 235.457 34.4 235.457H0V9.0617Z" fill="#2dc590 "/>
</svg>
