<svg width="1440" height="236" viewBox="0 0 1440 236" fill="none" xmlns="http://www.w3.org/2000/svg">
<path d="M1440 226.395L1405.6 207.659C1371.2 188.811 1302.4 151.339 1233.92 149.666C1165.28 147.993 1097.12 182.12 1028.48 203.532C960 224.945 891.2 233.421 822.72 214.685C754.08 195.949 685.92 149.777 617.28 125.688C548.8 101.487 480 99.2568 411.52 122.9C342.88 146.432 274.72 195.949 206.08 218.254C137.6 240.558 68.7999 235.651 34.4 233.309L0 230.856V-0.000106812H34.4C68.7999 -0.000106812 137.6 -0.000106812 206.08 -0.000106812C274.72 -0.000106812 342.88 -0.000106812 411.52 -0.000106812C480 -0.000106812 548.8 -0.000106812 617.28 -0.000106812C685.92 -0.000106812 754.08 -0.000106812 822.72 -0.000106812C891.2 -0.000106812 960 -0.000106812 1028.48 -0.000106812C1097.12 -0.000106812 1165.28 -0.000106812 1233.92 -0.000106812C1302.4 -0.000106812 1371.2 -0.000106812 1405.6 -0.000106812H1440V226.395Z" fill="#0096FF"/>
</svg>
